# xmcd CD database file
#
# Track frame offsets:
#	150
#	15226
#	36938
#	70826
#	90076
#	113303
#	140363
#	180396
#	203171
#	229396
#	255471
#
# Disc length: 3645 seconds
#
# Revision: 0
# Processed by: cddbd v1.4PL0 Copyright (c) Steve Scherf et al.
# Submitted via: CDex 1.50beta10
#
DISCID=7c0e3b0b
DTITLE=Guitar Jack and No Slack - Live at B.B. Kings
DYEAR=2001
DGENRE=Blues
TTITLE0=Empty Arms
TTITLE1=Sweet Home Chicago
TTITLE2=Caress Me Baby
TTITLE3=Knock On Wood
TTITLE4=Sen-sa-shun
TTITLE5=Change My Mind
TTITLE6=See See Baby
TTITLE7=My Love
TTITLE8=Hideaway Medley: Peter Gunn: Before You Accuse Me
TTITLE9=Red House
TTITLE10=Always Be Cool
EXTD=YEAR: 2001
EXTT0=
EXTT1=
EXTT2=
EXTT3=
EXTT4=
EXTT5=
EXTT6=
EXTT7=
EXTT8=
EXTT9=
EXTT10=
PLAYORDER=
